# xmcd
# 
# Track frame offsets:
#     150
#     20304
#     38699
#     58106
#     77218
#     95078
#     110174
#     129524
#     148188
#     159406
#     174554
# 
# Disc length: 2487
# 
# Revision: 0
# Processed by: cddbd v1.5.2PL0 Copyright (c) Steve Scherf et al.
# Submitted via: fre:ac v1.0.31
# 
DISCID=9509b50b
DTITLE=Various Artist - キュインぱちんこ P南国育ち デカパトver. ORIGINAL SOUNDTRACK Disc1
DYEAR=2020
DGENRE=Soundtrack
TTITLE0=まどか・レイコ・ナツ・いずみ・ジョディ・しゅり - キラキラSummer Breeze
TTITLE1=まどか・レイコ・ナツ・いずみ - 二人の南国
TTITLE2=まどか・レイコ・ジョディ - Summer Refrain
TTITLE3=非公開 - 恋のストーリー
TTITLE4=まどか・レイコ・ナツ・いずみ・ジョディ・キキ - 南国(パラダイス)への扉
TTITLE5=まどか・いずみ・キキ - Reach for the SKY!
TTITLE6=まどか・レイコ・ナツ・いずみ・ジョディ・しゅり - 七色の南国
TTITLE7=まどか・レイコ・ナツ・いずみ・ジョディ・キキ - 渚のラブストーリー
TTITLE8=非公開 - 幻想の月夜
TTITLE9=まどか - 潮騒キュインFortune
TTITLE10=パトランラン - パトRUN！たまRUN！
EXTD=
EXTT0=
EXTT1=
EXTT2=
EXTT3=
EXTT4=
EXTT5=
EXTT6=
EXTT7=
EXTT8=
EXTT9=
EXTT10=
PLAYORDER=
